<?xml version="1.0" encoding="UTF-8" standalone="no"?>
<!DOCTYPE svg PUBLIC "-//W3C//DTD SVG 1.1//EN" "http://www.w3.org/Graphics/SVG/1.1/DTD/svg11.dtd">
<svg version="1.1" xmlns="http://www.w3.org/2000/svg" xmlns:xlink="http://www.w3.org/1999/xlink" preserveAspectRatio="xMidYMid meet" viewBox="0 0 33 33" width="33" height="33"><defs><path d="M16.49 1.83C11.34 1.83 7.16 6.02 7.16 11.18C7.16 16.35 11.34 20.53 16.49 20.53C21.65 20.53 25.83 16.35 25.83 11.18C25.83 6.02 21.65 1.83 16.49 1.83Z" id="hfgWVDmn"></path><path d="M16.49 1.83C11.34 1.83 7.16 6.02 7.16 11.17C7.16 16.33 11.34 20.5 16.49 20.5C21.65 20.5 25.83 16.33 25.83 11.17C25.83 6.02 21.65 1.83 16.49 1.83Z" id="d3iqPgV6Ad"></path><path d="M11.44 19.05C10.59 25.44 10.06 29.43 9.85 31.03C9.84 31.1 9.92 31.16 9.99 31.12C10.86 30.6 13.02 29.3 16.49 27.21C19.99 29.32 22.19 30.63 23.05 31.15C23.1 31.18 23.15 31.14 23.14 31.09C22.94 29.49 22.4 25.47 21.55 19.04" id="aCi3OfeDm"></path><path d="M11.44 19.05C10.59 25.44 10.06 29.43 9.85 31.03C9.84 31.1 9.92 31.16 9.99 31.12C10.86 30.6 13.02 29.3 16.49 27.21C19.99 29.32 22.19 30.63 23.05 31.15C23.1 31.18 23.15 31.14 23.14 31.09C22.94 29.49 22.4 25.47 21.55 19.04" id="bbVU7mGjF"></path></defs><g><g><g><use xlink:href="#hfgWVDmn" opacity="1" fill="#000000" fill-opacity="0"></use><g><use xlink:href="#hfgWVDmn" opacity="1" fill-opacity="0" stroke="#000000" stroke-width="1" stroke-opacity="0"></use></g></g><g><use xlink:href="#d3iqPgV6Ad" opacity="1" fill="#000000" fill-opacity="0"></use><g><use xlink:href="#d3iqPgV6Ad" opacity="1" fill-opacity="0" stroke="#5965e0" stroke-width="2.5" stroke-opacity="1"></use></g></g><g><use xlink:href="#aCi3OfeDm" opacity="1" fill="#000000" fill-opacity="0"></use><g><use xlink:href="#aCi3OfeDm" opacity="1" fill-opacity="0" stroke="#000000" stroke-width="1" stroke-opacity="0"></use></g></g><g><use xlink:href="#bbVU7mGjF" opacity="1" fill="#000000" fill-opacity="0"></use><g><use xlink:href="#bbVU7mGjF" opacity="1" fill-opacity="0" stroke="#5965e0" stroke-width="2.5" stroke-opacity="1"></use></g></g></g></g></svg>