<?xml version="1.0" encoding="UTF-8" standalone="no"?>
<!DOCTYPE svg PUBLIC "-//W3C//DTD SVG 1.1//EN" "http://www.w3.org/Graphics/SVG/1.1/DTD/svg11.dtd">
<svg version="1.1" xmlns="http://www.w3.org/2000/svg" xmlns:xlink="http://www.w3.org/1999/xlink" preserveAspectRatio="xMidYMid meet" viewBox="0 0 42 42" width="42" height="42"><defs><path d="M1 21.49C1 30.17 6.73 37.54 14.68 40.13C15.68 40.32 16.04 39.71 16.04 39.19C16.04 38.72 16.03 37.48 16.02 35.85C10.45 37.03 9.28 33.21 9.28 33.21C8.37 30.94 7.06 30.33 7.06 30.33C5.24 29.12 7.2 29.14 7.2 29.14C9.2 29.28 10.26 31.17 10.26 31.17C12.04 34.17 14.94 33.3 16.08 32.8C16.26 31.53 16.78 30.66 17.35 30.17C12.91 29.68 8.24 27.99 8.24 20.46C8.24 18.32 9.02 16.56 10.3 15.19C10.07 14.69 9.4 12.69 10.47 9.99C10.47 9.99 12.15 9.46 15.97 12C17.57 11.56 19.27 11.35 20.97 11.34C22.67 11.35 24.37 11.56 25.97 12C29.77 9.46 31.45 9.99 31.45 9.99C32.52 12.69 31.85 14.69 31.65 15.19C32.92 16.56 33.7 18.32 33.7 20.46C33.7 28.01 29.02 29.67 24.57 30.16C25.27 30.75 25.92 31.95 25.92 33.79C25.92 36.42 25.9 38.54 25.9 39.17C25.9 39.69 26.25 40.3 27.27 40.11C35.27 37.53 41 30.16 41 21.49C41 10.63 32.04 1.83 21 1.83C9.95 1.83 1 10.63 1 21.49Z" id="dvWio4ssb"></path></defs><g><g><g><use xlink:href="#dvWio4ssb" opacity="1" fill="#000000" fill-opacity="1"></use><g><use xlink:href="#dvWio4ssb" opacity="1" fill-opacity="0" stroke="#000000" stroke-width="1" stroke-opacity="0"></use></g></g></g></g></svg>