<?xml version="1.0" encoding="UTF-8" standalone="no"?>
<!DOCTYPE svg PUBLIC "-//W3C//DTD SVG 1.1//EN" "http://www.w3.org/Graphics/SVG/1.1/DTD/svg11.dtd">
<svg version="1.1" xmlns="http://www.w3.org/2000/svg" xmlns:xlink="http://www.w3.org/1999/xlink" preserveAspectRatio="xMidYMid meet" viewBox="0 0 640 640" width="640" height="640"><defs><path d="M640 0C640 0 640 0 640 0C640 384 640 597.33 640 640C640 640 640 640 640 640C256 640 42.67 640 0 640C0 640 0 640 0 640C0 256 0 42.67 0 0C0 0 0 0 0 0C384 0 597.33 0 640 0Z" id="h3FCx95RJO"></path><path d="M390.98 140L315.21 500L224.15 500L299.91 140L390.98 140Z" id="bWE7Jis8"></path><path d="M522.68 140L463.99 420.98L373.42 420.98L432.13 140L522.68 140Z" id="g8h8unsC"></path><path d="M259.27 140L200.57 420.98L110 420.98L168.72 140L259.27 140Z" id="bciQxJRin"></path></defs><g><g><g><use xlink:href="#h3FCx95RJO" opacity="1" fill="#5965e0" fill-opacity="1"></use><g><use xlink:href="#h3FCx95RJO" opacity="1" fill-opacity="0" stroke="#000000" stroke-width="1" stroke-opacity="0"></use></g></g><g><use xlink:href="#bWE7Jis8" opacity="1" fill="#4953b8" fill-opacity="1"></use><g><use xlink:href="#bWE7Jis8" opacity="1" fill-opacity="0" stroke="#000000" stroke-width="1" stroke-opacity="0"></use></g></g><g><use xlink:href="#g8h8unsC" opacity="1" fill="#4953b8" fill-opacity="1"></use><g><use xlink:href="#g8h8unsC" opacity="1" fill-opacity="0" stroke="#000000" stroke-width="1" stroke-opacity="0"></use></g></g><g><use xlink:href="#bciQxJRin" opacity="1" fill="#4953b8" fill-opacity="1"></use><g><use xlink:href="#bciQxJRin" opacity="1" fill-opacity="0" stroke="#000000" stroke-width="1" stroke-opacity="0"></use></g></g></g></g></svg>