<?xml version="1.0" encoding="UTF-8" standalone="no"?>
<!DOCTYPE svg PUBLIC "-//W3C//DTD SVG 1.1//EN" "http://www.w3.org/Graphics/SVG/1.1/DTD/svg11.dtd">
<svg version="1.1" xmlns="http://www.w3.org/2000/svg" xmlns:xlink="http://www.w3.org/1999/xlink" preserveAspectRatio="xMidYMid meet" viewBox="0 0 33 33" width="33" height="33"><defs><path d="M25.33 10.67C25.33 5.51 21.15 1.33 16 1.33C10.85 1.33 6.67 5.51 6.67 10.67C6.67 15.82 10.85 20 16 20C21.15 20 25.33 15.82 25.33 10.67Z" id="eaDNA4diE"></path><path d="M10.95 18.52C10.1 24.89 9.57 28.88 9.36 30.47C9.35 30.55 9.43 30.61 9.5 30.57C10.37 30.05 12.53 28.75 16 26.67C19.5 28.76 21.68 30.08 22.56 30.6C22.6 30.63 22.66 30.59 22.65 30.54C22.44 28.94 21.9 24.92 21.05 18.51" id="a3qRtmfWy"></path></defs><g><g><g><use xlink:href="#eaDNA4diE" opacity="1" fill="#000000" fill-opacity="0"></use><g><use xlink:href="#eaDNA4diE" opacity="1" fill-opacity="0" stroke="#5965e0" stroke-width="2.5" stroke-opacity="1"></use></g></g><g><use xlink:href="#a3qRtmfWy" opacity="1" fill="#000000" fill-opacity="0"></use><g><use xlink:href="#a3qRtmfWy" opacity="1" fill-opacity="0" stroke="#5965e0" stroke-width="2.5" stroke-opacity="1"></use></g></g></g></g></svg>